<?xml version="1.0" encoding="utf-8"?>
<svg version="1.1" xmlns:xlink="http://www.w3.org/1999/xlink" width="70px" height="70px" xmlns="http://www.w3.org/2000/svg">
  <g transform="matrix(1 0 0 1 -359 -542 )">
    <path d="M 70 35  C 70 15.6718750097656  54.3281249902344 0  35 0  C 15.6718750097656 0  0 15.6718750097656  0 35  C 0 54.3281249902344  15.6718750097656 70  35 70  C 54.3281249902344 70  70 54.3281249902344  70 35  Z M 53.7499999804688 35.4296874804688  C 53.7499999804688 41.2656250097656  51.6640624609375 46.1640624511719  48.0468750097656 49.5000000195312  C 44.8750000097656 52.4218750097656  40.5468749902344 54.140625  35.3828125 54.140625  C 27.9062499707031 54.140625  21.4375 49.8515625097656  18.2890624902344 43.6015624707031  C 16.9921875292969 41.015625  16.2500000195312 38.0937500097656  16.2500000195312 35  C 16.2500000195312 31.9062499902344  16.9921875292969 28.984375  18.2890624902344 26.3984375292969  C 21.4375 20.1406250390625  27.9062499707031 15.8515625488281  35.3828125 15.8515624804687  C 40.5390624707031 15.8515624804687  44.8671874902344 17.7500000097656  48.1875000195312 20.8359375  L 42.7031249804688 26.3281249902344  C 40.7187500097656 24.4296874609375  38.1953124902344 23.4687500195312  35.3906250195312 23.4687500195312  C 30.40625 23.4687500195312  26.1875000488281 26.8359375292969  24.6796874707031 31.3593749902344  C 24.2968749707031 32.5078124902344  24.0781249707031 33.7343749804688  24.0781249707031 35  C 24.0781249707031 36.2656250195312  24.2968749707031 37.4921875097656  24.6796874707031 38.6406250097656  C 26.1874999804687 43.1640625390625  30.40625 46.5312499804688  35.3828125 46.5312499804688  C 37.9609375195312 46.5312499804688  40.1484375195312 45.8515624902344  41.8593749902344 44.7031249902344  C 43.8906250097656 43.3437500097656  45.2343750195312 41.3203125097656  45.6796874707031 39  L 35.3828125 39  L 35.3828125 32  L 53.4062500097656 32  C 53.6328125292969 32.7734374707031  53.7499999804688 34.0781249511719  53.7499999804688 35.4296874804688  Z " fill-rule="nonzero" fill="#027db4" stroke="none" transform="matrix(1 0 0 1 359 542 )" />
  </g>
</svg>