<?xml version="1.0" encoding="utf-8"?>
<svg version="1.1" xmlns:xlink="http://www.w3.org/1999/xlink" width="22px" height="22px" xmlns="http://www.w3.org/2000/svg">
  <g transform="matrix(1 0 0 1 -21 -30 )">
    <path d="M 18.0611979166667 12.5611979166667  C 18.2426215277778 12.3797743055556  18.3333333333333 12.1649305555556  18.3333333333333 11.9166666666667  L 18.3333333333333 10.0833333333333  C 18.3333333333333 9.83506944444444  18.2426215277778 9.62022569444444  18.0611979166667 9.43880208333333  C 17.8797743055556 9.25737847222222  17.6649305555556 9.16666666666667  17.4166666666667 9.16666666666667  L 10.2265625 9.16666666666667  L 12.93359375 6.45963541666667  C 13.1150173611111 6.27821180555555  13.2057291666667 6.06336805555555  13.2057291666667 5.81510416666667  C 13.2057291666667 5.56684027777778  13.1150173611111 5.35199652777778  12.93359375 5.17057291666667  L 11.6302083333333 3.8671875  C 11.4583333333333 3.6953125  11.2434895833333 3.609375  10.9856770833333 3.609375  C 10.7278645833333 3.609375  10.5130208333333 3.6953125  10.3411458333333 3.8671875  L 5.15625 9.05208333333333  L 3.85286458333333 10.35546875  C 3.68098958333333 10.52734375  3.59505208333333 10.7421875  3.59505208333333 11  C 3.59505208333333 11.2578125  3.68098958333333 11.47265625  3.85286458333333 11.64453125  L 5.15625 12.9479166666667  L 10.3411458333333 18.1328125  C 10.5130208333333 18.3046875  10.7278645833333 18.390625  10.9856770833333 18.390625  C 11.2434895833333 18.390625  11.4583333333333 18.3046875  11.6302083333333 18.1328125  L 12.93359375 16.8294270833333  C 13.10546875 16.6575520833333  13.19140625 16.4427083333333  13.19140625 16.1848958333333  C 13.19140625 15.9270833333333  13.10546875 15.7122395833333  12.93359375 15.5403645833333  L 10.2265625 12.8333333333333  L 17.4166666666667 12.8333333333333  C 17.6649305555556 12.8333333333333  17.8797743055556 12.7426215277778  18.0611979166667 12.5611979166667  Z M 20.5247395833333 5.478515625  C 21.5082465277778 7.16384548611111  22 9.00434027777778  22 11  C 22 12.9956597222222  21.5082465277778 14.8361545138889  20.5247395833333 16.521484375  C 19.5412326388889 18.2068142361111  18.2068142361111 19.5412326388889  16.521484375 20.5247395833333  C 14.8361545138889 21.5082465277778  12.9956597222222 22  11 22  C 9.00434027777778 22  7.16384548611111 21.5082465277778  5.478515625 20.5247395833333  C 3.79318576388889 19.5412326388889  2.45876736111111 18.2068142361111  1.47526041666667 16.521484375  C 0.491753472222222 14.8361545138889  0 12.9956597222222  0 11  C 0 9.00434027777778  0.491753472222222 7.16384548611111  1.47526041666667 5.478515625  C 2.45876736111111 3.79318576388889  3.79318576388889 2.45876736111111  5.478515625 1.47526041666667  C 7.16384548611111 0.49175347222222  9.00434027777778 0  11 0  C 12.9956597222222 0  14.8361545138889 0.49175347222222  16.521484375 1.47526041666667  C 18.2068142361111 2.45876736111111  19.5412326388889 3.79318576388889  20.5247395833333 5.478515625  Z " fill-rule="nonzero" fill="#aaaaaa" stroke="none" transform="matrix(1 0 0 1 21 30 )" />
  </g>
</svg>