<?xml version="1.0" encoding="utf-8"?>
<svg version="1.1" xmlns:xlink="http://www.w3.org/1999/xlink" width="70px" height="70px" xmlns="http://www.w3.org/2000/svg">
  <g transform="matrix(1 0 0 1 -993 -542 )">
    <path d="M 70 35  C 70 15.75  54.25 0  35 0  C 15.75 0  0 15.75  0 35  C 0 54.25  15.75 70  35 70  C 54.25 70  70 54.25  70 35  Z M 23.1875 42  C 22.96875 42.21875  22.53125 42  22.3125 41.5625  C 22.09375 41.34375  22.09375 40.6875  21.875 40.03125  C 21.65625 38.0625  21.875 35.21875  22.53125 34.34375  C 22.75 33.90625  23.1875 33.6875  23.625 33.6875  C 23.84375 33.6875  24.0625 33.6875  29.75 36.09375  L 31.28125 36.75  C 31.9375 36.96875  32.15625 37.625  32.15625 38.28125  C 32.15625 38.9375  31.71875 39.59375  31.0625 39.59375  L 28.875 40.25  C 23.84375 42  23.625 42  23.1875 42  Z M 35 43.53125  L 35 45.71875  C 35 51.1875  35 51.40625  34.78125 51.625  C 34.5625 52.0625  34.34375 52.28125  33.90625 52.5  C 32.59375 52.71875  28.21875 51.1875  27.34375 50.09375  C 27.125 49.875  27.125 49.65625  27.125 49.4375  L 27.125 49  C 27.125 48.78125  27.34375 48.5625  31.28125 43.96875  L 32.375 42.65625  C 32.8125 42.21875  33.46875 42  34.125 42.21875  C 34.78125 42.4375  35.21875 43.09375  35 43.53125  Z M 35.21875 31.71875  C 35.21875 33.90625  34.34375 34.125  34.125 34.125  C 33.90625 34.125  33.03125 34.5625  31.9375 32.8125  C 31.9375 32.8125  24.9375 21.4375  24.71875 21.21875  C 24.71875 20.78125  24.71875 20.34375  25.15625 20.125  C 26.25 18.8125  31.9375 17.28125  33.46875 17.5  C 33.90625 17.71875  34.34375 17.9375  34.34375 18.375  C 34.34375 18.8125  35.21875 29.3125  35.21875 31.71875  Z M 37.84375 36.53125  C 37.40625 35.875  37.40625 35.21875  37.84375 34.78125  L 39.375 32.8125  C 42.4375 28.4375  42.65625 28.21875  42.875 28  C 43.3125 27.78125  43.75 27.78125  44.1875 28  C 45.5 28.65625  47.90625 32.375  48.125 33.90625  C 48.125 34.34375  47.90625 34.78125  47.6875 35  C 47.46875 35.21875  47.25 35.21875  41.34375 36.75  C 40.03125 36.96875  39.59375 37.1875  39.375 37.1875  C 38.71875 37.40625  38.0625 36.96875  37.84375 36.53125  Z M 47.90625 44.1875  C 47.90625 45.5  45.0625 49.21875  43.75 49.875  C 43.3125 50.09375  42.875 50.09375  42.4375 49.65625  C 42.21875 49.4375  42 49.21875  38.9375 43.96875  L 38.0625 42.4375  C 37.625 42  37.84375 41.125  38.28125 40.6875  C 38.71875 40.25  39.375 40.03125  39.8125 40.25  L 42 41.125  C 47.03125 42.875  47.25 42.875  47.46875 43.09375  C 47.90625 43.3125  47.90625 43.75  47.90625 44.1875  Z " fill-rule="nonzero" fill="#f5191a" stroke="none" transform="matrix(1 0 0 1 993 542 )" />
  </g>
</svg>